# xmcd
#
# Track frame offsets:
#	150
#	9924
#	27596
#	41257
#	54853
#	73675
#	89744
#	106297
#	134927
#	145053
#	160327
#	172829
#	190410
#	210059
#
# Disc length: 2942 seconds
#
# Revision: 2
# Processed by: cddbd v1.5.2PL0 Copyright (c) Steve Scherf et al.
# Submitted via: EasyCDDAExtractor 16.0.8.1
#
DISCID=bb0b7c0e
DTITLE=Various Artist - 'Well I Love It - Macca's Australia All Over [CD1]
DYEAR=2014
DGENRE=Country
TTITLE0=Drew Forsythe - Macca On A Sunday Morning
TTITLE1=Stephen Pigram - Crocodile River
TTITLE2=Caitlin Smith - I Get Along Without You Very Well
TTITLE3=Mary Schneider - Boogie Woogie Bugle Boy
TTITLE4=Mike McClellan - I Wonder Who You're Waiting For
TTITLE5=Mark Cryle - Waiting For The Ice To Thaw
TTITLE6=Gary Shearston - I Get A Kick Out Of You
TTITLE7=Ian McNamara and Digger Revell - The Man With The Big Hat (Drovers Mix
TTITLE7=)
TTITLE8=Phil Moran - La Paloma
TTITLE9=Paul Wookey - The Great Divide
TTITLE10=Smoky Dawson and The Howie Bros - The Days Of Old Khancoban
TTITLE11=The Basics - Fear Of Failure
TTITLE12=Roger Ilott and Penny Davies - Beside A Railway Line
TTITLE13=Ian McNamara - Lover Please
EXTD=
EXTT0=
EXTT1=
EXTT2=
EXTT3=
EXTT4=
EXTT5=
EXTT6=
EXTT7=
EXTT8=
EXTT9=
EXTT10=
EXTT11=
EXTT12=
EXTT13=
PLAYORDER=
